<svg width="64" height="64" viewBox="0 0 64 64" fill="none" xmlns="http://www.w3.org/2000/svg">
<rect width="64" height="64" fill="#E5E5E5"/>
<g clip-path="url(#clip0_0_1)">
<rect width="1440" height="4474" transform="translate(-1175 -3742)" fill="#FEFEFE"/>
<rect x="-1174" y="-122" width="1439" height="366" fill="#F6F6F6"/>
<path d="M27.3702 2.04884C30.1795 0.198831 33.8205 0.198831 36.6298 2.04884L37.182 2.41245C38.6974 3.41038 40.4947 3.89196 42.306 3.78544L42.966 3.74662C46.324 3.54914 49.4772 5.36963 50.9851 8.37645L51.2815 8.96742C52.0949 10.5894 53.4106 11.9051 55.0326 12.7185L55.6235 13.0149C58.6304 14.5228 60.4509 17.676 60.2534 21.034L60.2146 21.694C60.108 23.5053 60.5896 25.3026 61.5876 26.818L61.9512 27.3702C63.8012 30.1795 63.8012 33.8205 61.9512 36.6298L61.5876 37.182C60.5896 38.6974 60.108 40.4947 60.2146 42.306L60.2534 42.966C60.4509 46.324 58.6304 49.4772 55.6235 50.9851L55.0326 51.2815C53.4106 52.0949 52.0949 53.4106 51.2815 55.0326L50.9851 55.6235C49.4772 58.6304 46.324 60.4509 42.966 60.2534L42.306 60.2146C40.4947 60.108 38.6974 60.5896 37.182 61.5876L36.6298 61.9512C33.8205 63.8012 30.1795 63.8012 27.3702 61.9512L26.818 61.5876C25.3026 60.5896 23.5053 60.108 21.694 60.2146L21.034 60.2534C17.676 60.4509 14.5228 58.6304 13.0149 55.6235L12.7185 55.0326C11.9051 53.4106 10.5894 52.0949 8.96742 51.2815L8.37645 50.9851C5.36963 49.4772 3.54914 46.324 3.74662 42.966L3.78544 42.306C3.89196 40.4947 3.41038 38.6974 2.41245 37.182L2.04884 36.6298C0.198831 33.8205 0.198831 30.1795 2.04884 27.3702L2.41245 26.818C3.41038 25.3026 3.89196 23.5053 3.78544 21.694L3.74662 21.034C3.54913 17.676 5.36963 14.5228 8.37645 13.0149L8.96742 12.7185C10.5894 11.9051 11.9051 10.5894 12.7185 8.96742L13.0149 8.37645C14.5228 5.36963 17.676 3.54914 21.034 3.74662L21.694 3.78544C23.5053 3.89196 25.3026 3.41038 26.818 2.41245L27.3702 2.04884Z" fill="#072F54"/>
<path d="M18 19.6256C18 18.664 18.4142 17.7419 19.1514 17.0619C19.8886 16.382 20.8885 16 21.9311 16H37.6555C38.6981 16 39.698 16.382 40.4352 17.0619C41.1724 17.7419 41.5866 18.664 41.5866 19.6256V37.5416L39.6211 39.3725V19.6256C39.6211 19.1448 39.414 18.6837 39.0454 18.3438C38.6768 18.0038 38.1768 17.8128 37.6555 17.8128H21.9311C21.4098 17.8128 20.9099 18.0038 20.5412 18.3438C20.1726 18.6837 19.9656 19.1448 19.9656 19.6256V41.3793C19.9656 41.8601 20.1726 42.3212 20.5412 42.6611C20.9099 43.0011 21.4098 43.1921 21.9311 43.1921H29.9604C30.0999 43.5546 30.324 43.8973 30.6365 44.1891L31.5033 45.0049H21.9311C20.8885 45.0049 19.8886 44.6229 19.1514 43.943C18.4142 43.263 18 42.3408 18 41.3793V19.6256Z" fill="#F8F8F8"/>
<path d="M25.8618 22.345C25.8618 22.8257 25.6547 23.2868 25.2861 23.6268C24.9174 23.9667 24.4175 24.1577 23.8962 24.1577C23.3749 24.1577 22.875 23.9667 22.5064 23.6268C22.1377 23.2868 21.9307 22.8257 21.9307 22.345C21.9307 21.8642 22.1377 21.4031 22.5064 21.0632C22.875 20.7232 23.3749 20.5322 23.8962 20.5322C24.4175 20.5322 24.9174 20.7232 25.2861 21.0632C25.6547 21.4031 25.8618 21.8642 25.8618 22.345Z" fill="#F8F8F8"/>
<path d="M28.8109 21.4382C28.5503 21.4382 28.3003 21.5337 28.116 21.7037C27.9317 21.8737 27.8281 22.1043 27.8281 22.3447C27.8281 22.5851 27.9317 22.8156 28.116 22.9856C28.3003 23.1556 28.5503 23.2511 28.8109 23.2511H36.6731C36.9338 23.2511 37.1837 23.1556 37.368 22.9856C37.5523 22.8156 37.6559 22.5851 37.6559 22.3447C37.6559 22.1043 37.5523 21.8737 37.368 21.7037C37.1837 21.5337 36.9338 21.4382 36.6731 21.4382H28.8109Z" fill="#F8F8F8"/>
<path d="M28.8109 28.6899C28.5503 28.6899 28.3003 28.7854 28.116 28.9554C27.9317 29.1254 27.8281 29.3559 27.8281 29.5963C27.8281 29.8366 27.9317 30.0671 28.116 30.2371C28.3003 30.4071 28.5503 30.5026 28.8109 30.5026H36.6731C36.9338 30.5026 37.1837 30.4071 37.368 30.2371C37.5523 30.0671 37.6559 29.8366 37.6559 29.5963C37.6559 29.3559 37.5523 29.1254 37.368 28.9554C37.1837 28.7854 36.9338 28.6899 36.6731 28.6899H28.8109Z" fill="#F8F8F8"/>
<path d="M27.8281 36.8472C27.8281 36.6069 27.9317 36.3763 28.116 36.2064C28.3003 36.0364 28.5503 35.9409 28.8109 35.9409H36.6731C36.9338 35.9409 37.1837 36.0364 37.368 36.2064C37.5523 36.3763 37.6559 36.6069 37.6559 36.8472C37.6559 37.0876 37.5523 37.3181 37.368 37.4881C37.1837 37.6581 36.9338 37.7535 36.6731 37.7535H28.8109C28.5503 37.7535 28.3003 37.6581 28.116 37.4881C27.9317 37.3181 27.8281 37.0876 27.8281 36.8472Z" fill="#F8F8F8"/>
<path d="M23.8962 31.4087C24.4175 31.4087 24.9174 31.2177 25.2861 30.8778C25.6547 30.5378 25.8618 30.0767 25.8618 29.5959C25.8618 29.1152 25.6547 28.6541 25.2861 28.3141C24.9174 27.9742 24.4175 27.7832 23.8962 27.7832C23.3749 27.7832 22.875 27.9742 22.5064 28.3141C22.1377 28.6541 21.9307 29.1152 21.9307 29.5959C21.9307 30.0767 22.1377 30.5378 22.5064 30.8778C22.875 31.2177 23.3749 31.4087 23.8962 31.4087Z" fill="#F8F8F8"/>
<path d="M23.8962 38.6599C24.4175 38.6599 24.9174 38.4689 25.2861 38.129C25.6547 37.789 25.8618 37.3279 25.8618 36.8472C25.8618 36.3664 25.6547 35.9053 25.2861 35.5654C24.9174 35.2254 24.4175 35.0344 23.8962 35.0344C23.3749 35.0344 22.875 35.2254 22.5064 35.5654C22.1377 35.9053 21.9307 36.3664 21.9307 36.8472C21.9307 37.3279 22.1377 37.789 22.5064 38.129C22.875 38.4689 23.3749 38.6599 23.8962 38.6599Z" fill="#F8F8F8"/>
<path d="M45.2327 39.2981C45.4111 39.1265 45.5092 38.8971 45.506 38.6593C45.5027 38.4216 45.3983 38.1946 45.2152 38.0272C45.0322 37.8598 44.7852 37.7654 44.5274 37.7644C44.2696 37.7634 44.0217 37.8559 43.8372 38.0219L36.6767 44.6931L33.4433 41.6511C33.3535 41.5642 33.2458 41.4945 33.1265 41.4463C33.0073 41.3981 32.8788 41.3722 32.7485 41.3701C32.6183 41.3681 32.489 41.3899 32.368 41.4344C32.247 41.4788 32.1368 41.545 32.0438 41.6291C31.9508 41.7132 31.8768 41.8135 31.8262 41.9242C31.7756 42.0349 31.7494 42.1538 31.749 42.2739C31.7487 42.394 31.7742 42.513 31.8241 42.6239C31.8741 42.7349 31.9474 42.8356 32.0399 42.9201L35.8315 46.4878C35.9409 46.5908 36.0715 46.6727 36.2157 46.7287C36.3598 46.7847 36.5145 46.8137 36.6709 46.8141C36.8273 46.8144 36.9822 46.7861 37.1266 46.7307C37.271 46.6753 37.402 46.5939 37.512 46.4914L45.2327 39.2981Z" fill="#F8F8F8"/>
</g>
<defs>
<clipPath id="clip0_0_1">
<rect width="1440" height="4474" fill="white" transform="translate(-1175 -3742)"/>
</clipPath>
</defs>
</svg>
