<svg width="64" height="64" viewBox="0 0 64 64" fill="none" xmlns="http://www.w3.org/2000/svg">
<rect width="64" height="64" fill="#E5E5E5"/>
<g clip-path="url(#clip0_0_1)">
<rect width="1440" height="4474" transform="translate(-867 -3742)" fill="#FEFEFE"/>
<rect x="-866" y="-122" width="1439" height="366" fill="#F6F6F6"/>
<path d="M27.3702 2.04884C30.1795 0.198831 33.8205 0.198831 36.6298 2.04884L37.182 2.41245C38.6974 3.41038 40.4947 3.89196 42.306 3.78544L42.966 3.74662C46.324 3.54914 49.4772 5.36963 50.9851 8.37645L51.2815 8.96742C52.0949 10.5894 53.4106 11.9051 55.0326 12.7185L55.6235 13.0149C58.6304 14.5228 60.4509 17.676 60.2534 21.034L60.2146 21.694C60.108 23.5053 60.5896 25.3026 61.5876 26.818L61.9512 27.3702C63.8012 30.1795 63.8012 33.8205 61.9512 36.6298L61.5876 37.182C60.5896 38.6974 60.108 40.4947 60.2146 42.306L60.2534 42.966C60.4509 46.324 58.6304 49.4772 55.6235 50.9851L55.0326 51.2815C53.4106 52.0949 52.0949 53.4106 51.2815 55.0326L50.9851 55.6235C49.4772 58.6304 46.324 60.4509 42.966 60.2534L42.306 60.2146C40.4947 60.108 38.6974 60.5896 37.182 61.5876L36.6298 61.9512C33.8205 63.8012 30.1795 63.8012 27.3702 61.9512L26.818 61.5876C25.3026 60.5896 23.5053 60.108 21.694 60.2146L21.034 60.2534C17.676 60.4509 14.5228 58.6304 13.0149 55.6235L12.7185 55.0326C11.9051 53.4106 10.5894 52.0949 8.96742 51.2815L8.37645 50.9851C5.36963 49.4772 3.54914 46.324 3.74662 42.966L3.78544 42.306C3.89196 40.4947 3.41038 38.6974 2.41245 37.182L2.04884 36.6298C0.198831 33.8205 0.198831 30.1795 2.04884 27.3702L2.41245 26.818C3.41038 25.3026 3.89196 23.5053 3.78544 21.694L3.74662 21.034C3.54913 17.676 5.36963 14.5228 8.37645 13.0149L8.96742 12.7185C10.5894 11.9051 11.9051 10.5894 12.7185 8.96742L13.0149 8.37645C14.5228 5.36963 17.676 3.54914 21.034 3.74662L21.694 3.78544C23.5053 3.89196 25.3026 3.41038 26.818 2.41245L27.3702 2.04884Z" fill="#072F54"/>
<g clip-path="url(#clip1_0_1)">
<path d="M45.7056 19.8509C45.0995 19.5967 44.493 19.5 43.8867 19.5C41.9622 19.4998 40.0378 20.4741 38.1133 20.4741C37.6306 20.4741 37.1483 20.4128 36.6656 20.2597C36.6114 20.2425 36.557 20.2344 36.5039 20.2344C36.235 20.2344 36 20.4425 36 20.7314V25.6886C36 25.8859 36.113 26.073 36.2944 26.1489C36.9005 26.4033 37.507 26.5 38.1133 26.5C40.0378 26.5 41.9623 25.5258 43.8869 25.5258C44.3695 25.5258 44.8519 25.587 45.3345 25.7402C45.3887 25.7573 45.4431 25.7655 45.4963 25.7655C45.7652 25.7655 46.0002 25.5573 46.0002 25.2684V20.3114C46 20.1139 45.887 19.927 45.7056 19.8509ZM36.75 21.0659C37.0644 21.1447 37.3925 21.1842 37.73 21.2055C37.6381 21.6647 37.2344 22.0108 36.75 22.0108V21.0659ZM36.75 25.5191V24.7725C37.287 24.7725 37.7216 25.1986 37.7455 25.7319C37.3934 25.7036 37.0644 25.6333 36.75 25.5191ZM41 24.5C40.3095 24.5 39.75 23.8283 39.75 23C39.75 22.1716 40.3097 21.5 41 21.5C41.6903 21.5 42.25 22.1716 42.25 23C42.25 23.8286 41.6902 24.5 41 24.5ZM45.25 24.9341C44.9762 24.8655 44.692 24.827 44.4012 24.8022C44.493 24.3947 44.8309 24.0853 45.25 24.0322V24.9341ZM45.25 21.2448C44.7673 21.1837 44.3928 20.7808 44.378 20.2831C44.6833 20.317 44.9731 20.3805 45.25 20.4809V21.2448Z" fill="white"/>
</g>
<path d="M35.9416 33.2212C38.7468 33.2212 41.0208 31.9293 41.0208 30.3357C41.0208 28.7421 38.7468 27.4502 35.9416 27.4502C33.1364 27.4502 30.8623 28.7421 30.8623 30.3357C30.8623 31.9293 33.1364 33.2212 35.9416 33.2212Z" fill="white"/>
<path fill-rule="evenodd" clip-rule="evenodd" d="M36.0177 34.8812C32.3849 34.8812 30.9385 33.3587 30.9385 32.4768V36.2544C30.9385 37.8486 33.2127 39.1385 36.0177 39.1385C38.8257 39.1385 41.0999 37.8486 41.0999 36.2544V32.5675C41.0999 33.4508 39.6521 34.8812 36.0177 34.8812Z" fill="white"/>
<path fill-rule="evenodd" clip-rule="evenodd" d="M36.0177 40.7181C32.7681 40.7181 30.9385 39.2541 30.9385 38.3722V42.1148C30.9385 43.7089 33.2127 45.0003 36.0177 45.0003C38.8257 45.0003 41.0999 43.7089 41.0999 42.1148V38.3269C41.0999 39.2088 39.2689 40.7181 36.0177 40.7181Z" fill="white"/>
<path d="M23.4581 27.3711C26.638 27.3711 29.2159 26.0792 29.2159 24.4856C29.2159 22.892 26.638 21.6001 23.4581 21.6001C20.2781 21.6001 17.7002 22.892 17.7002 24.4856C17.7002 26.0792 20.2781 27.3711 23.4581 27.3711Z" fill="white"/>
<path fill-rule="evenodd" clip-rule="evenodd" d="M23.6407 29.0311C19.5237 29.0311 17.8828 27.5086 17.8828 26.6267V30.4043C17.8828 31.9985 20.4612 33.2884 23.6407 33.2884C26.8231 33.2884 29.4 31.9985 29.4 30.4043V26.7174C29.4 27.6007 27.7576 29.0311 23.6407 29.0311Z" fill="white"/>
<path fill-rule="evenodd" clip-rule="evenodd" d="M23.6407 34.868C19.9566 34.868 17.8828 33.404 17.8828 32.5221V36.2647C17.8828 37.8588 20.4612 39.1502 23.6407 39.1502C26.8231 39.1502 29.4 37.8588 29.4 36.2647V32.4768C29.4 33.3587 27.3232 34.868 23.6407 34.868Z" fill="white"/>
<path fill-rule="evenodd" clip-rule="evenodd" d="M23.6407 40.7181C19.9566 40.7181 17.8828 39.2541 17.8828 38.3722V42.1148C17.8828 43.7089 20.4612 45.0003 23.6407 45.0003C26.8231 45.0003 29.4 43.7089 29.4 42.1148V38.3269C29.4 39.2088 27.3232 40.7181 23.6407 40.7181Z" fill="white"/>
</g>
<defs>
<clipPath id="clip0_0_1">
<rect width="1440" height="4474" fill="white" transform="translate(-867 -3742)"/>
</clipPath>
<clipPath id="clip1_0_1">
<rect width="10" height="8" fill="white" transform="translate(36 19)"/>
</clipPath>
</defs>
</svg>
