<svg width="62" height="64" viewBox="0 0 62 64" fill="none" xmlns="http://www.w3.org/2000/svg">
<rect width="62" height="64" fill="#E5E5E5"/>
<g clip-path="url(#clip0_0_1)">
<rect width="1440" height="4474" transform="translate(-542 -3742)" fill="#FEFEFE"/>
<rect x="-541" y="-122" width="1439" height="366" fill="#F6F6F6"/>
<path d="M26.6707 1.59616C29.3357 -0.0019564 32.6643 -0.00195622 35.3293 1.59616L38.3138 3.38582C39.4062 4.04094 40.6331 4.43958 41.902 4.55172L45.3684 4.85805C48.4638 5.1316 51.1567 7.08814 52.3734 9.94749L53.7359 13.1496C54.2347 14.3217 54.993 15.3654 55.9536 16.2019L58.5779 18.4873C60.9214 20.528 61.95 23.6937 61.2536 26.7221L60.4738 30.1135C60.1883 31.355 60.1883 32.645 60.4738 33.8865L61.2536 37.2779C61.95 40.3063 60.9214 43.472 58.5779 45.5127L55.9536 47.7981C54.993 48.6346 54.2347 49.6783 53.7359 50.8504L52.3734 54.0525C51.1567 56.9119 48.4638 58.8684 45.3684 59.1419L41.902 59.4483C40.6331 59.5604 39.4062 59.9591 38.3138 60.6142L35.3293 62.4038C32.6643 64.002 29.3357 64.002 26.6707 62.4038L23.6862 60.6142C22.5938 59.9591 21.3669 59.5604 20.098 59.4483L16.6316 59.1419C13.5362 58.8684 10.8432 56.9119 9.62656 54.0525L8.26405 50.8504C7.76529 49.6783 7.00702 48.6346 6.04637 47.7981L3.42207 45.5127C1.07864 43.472 0.0500247 40.3063 0.74639 37.2779L1.52622 33.8865C1.81168 32.645 1.81168 31.355 1.52622 30.1135L0.746389 26.7221C0.0500247 23.6937 1.07864 20.528 3.42207 18.4873L6.04637 16.2019C7.00702 15.3654 7.76529 14.3217 8.26405 13.1496L9.62656 9.94749C10.8433 7.08814 13.5362 5.1316 16.6316 4.85805L20.098 4.55172C21.3669 4.43958 22.5938 4.04094 23.6862 3.38582L26.6707 1.59616Z" fill="#072F54"/>
<path d="M16 32H31V34.5H16V32Z" fill="white"/>
<path d="M13.5 25.75H26V28.25H13.5V25.75Z" fill="white"/>
<path d="M48.3989 32.7575L44.6489 24.0075C44.5527 23.7826 44.3925 23.5909 44.1883 23.4562C43.9841 23.3216 43.7448 23.2499 43.5002 23.25H39.7502V20.75C39.7502 20.4185 39.6185 20.1005 39.3841 19.8661C39.1496 19.6317 38.8317 19.5 38.5002 19.5H18.5002V22H37.2502V37.695C36.6806 38.0257 36.1821 38.466 35.7835 38.9903C35.3849 39.5146 35.094 40.1127 34.9277 40.75H27.0727C26.7684 39.5717 26.0449 38.5448 25.0377 37.8617C24.0304 37.1787 22.8087 36.8865 21.6014 37.0399C20.3942 37.1932 19.2843 37.7816 18.4798 38.6947C17.6753 39.6078 17.2314 40.783 17.2314 42C17.2314 43.217 17.6753 44.3922 18.4798 45.3053C19.2843 46.2184 20.3942 46.8068 21.6014 46.9601C22.8087 47.1135 24.0304 46.8213 25.0377 46.1383C26.0449 45.4552 26.7684 44.4283 27.0727 43.25H34.9277C35.1996 44.3228 35.8215 45.2743 36.6949 45.954C37.5683 46.6336 38.6435 47.0027 39.7502 47.0027C40.8569 47.0027 41.932 46.6336 42.8055 45.954C43.6789 45.2743 44.3008 44.3228 44.5727 43.25H47.2502C47.5817 43.25 47.8996 43.1183 48.1341 42.8839C48.3685 42.6495 48.5002 42.3315 48.5002 42V33.25C48.5002 33.0807 48.4658 32.9131 48.3989 32.7575ZM22.2502 44.5C21.7557 44.5 21.2724 44.3534 20.8612 44.0787C20.4501 43.804 20.1297 43.4135 19.9405 42.9567C19.7513 42.4999 19.7017 41.9972 19.7982 41.5123C19.8947 41.0273 20.1328 40.5819 20.4824 40.2322C20.832 39.8826 21.2775 39.6445 21.7624 39.548C22.2474 39.4516 22.7501 39.5011 23.2069 39.6903C23.6637 39.8795 24.0541 40.1999 24.3288 40.6111C24.6036 41.0222 24.7502 41.5055 24.7502 42C24.7495 42.6628 24.4859 43.2983 24.0172 43.767C23.5485 44.2357 22.913 44.4993 22.2502 44.5ZM39.7502 25.75H42.6752L45.3552 32H39.7502V25.75ZM39.7502 44.5C39.2557 44.5 38.7724 44.3534 38.3612 44.0787C37.9501 43.804 37.6297 43.4135 37.4405 42.9567C37.2513 42.4999 37.2017 41.9972 37.2982 41.5123C37.3947 41.0273 37.6328 40.5819 37.9824 40.2322C38.332 39.8826 38.7775 39.6445 39.2624 39.548C39.7474 39.4516 40.2501 39.5011 40.7069 39.6903C41.1637 39.8795 41.5541 40.1999 41.8288 40.6111C42.1035 41.0222 42.2502 41.5055 42.2502 42C42.2495 42.6628 41.9859 43.2983 41.5172 43.767C41.0485 44.2357 40.413 44.4993 39.7502 44.5ZM46.0002 40.75H44.5727C44.2973 39.6793 43.6745 38.7302 42.8017 38.0516C41.929 37.3729 40.8557 37.0031 39.7502 37V34.5H46.0002V40.75Z" fill="white"/>
</g>
<defs>
<clipPath id="clip0_0_1">
<rect width="1440" height="4474" fill="white" transform="translate(-542 -3742)"/>
</clipPath>
</defs>
</svg>
